# AST/ASF file generated using VICON BodyLanguage
# -----------------------------------------------
:version 1.10
:name VICON
:units
  mass 1.0
  length 0.45
  angle deg
:documentation
   .ast/.asf automatically generated from VICON data using
   VICON BodyBuilder and BodyLanguage model FoxedUp or BRILLIANT.MOD
:root
   order TX TY TZ RX RY RZ
   axis XYZ
   position 0 0 0  
   orientation 0 -0 0 
:bonedata
  begin
     id 1 
     name lhipjoint
     direction 0.432694 -0.693742 0.575759 
     length 2.19277 
     axis 0 -0 0  XYZ
  end
  begin
     id 2 
     name lfemur
     direction 0.34202 -0.939693 0  
     length 6.69022  
     axis 0 -0 20  XYZ
    dof rx ry rz
    limits (-160.0 20.0)
           (-70.0 70.0)
           (-60.0 70.0)
  end
  begin
     id 3 
     name ltibia
     direction 0.34202 -0.939693 0   
     length 6.50337   
     axis 0 -0 20   XYZ
    dof rx
    limits (-10.0 170.0)
  end
  begin
     id 4 
     name lfoot
     direction 0.158999 -0.435969 0.885805   
     length 2.70564   
     axis -90 -1.13533e-015 20   XYZ
    dof rx rz
    limits (-45.0 90.0)
           (-70.0 20.0)
  end
  begin
     id 5 
     name ltoes
     direction -0.00592919 0.00964381 0.999936   
     length 1.29929   
     axis -90 -1.13533e-015 20   XYZ
    dof rx
    limits (-90.0 20.0)
  end
  begin
     id 6 
     name rhipjoint
     direction -0.414359 -0.700339 0.581234   
     length 2.17212  
     axis 0 -0 0  XYZ 
  end
  begin
     id 7 
     name rfemur
     direction -0.34202 -0.939693 0   
     length 7.17659   
     axis 0 -0 -20   XYZ
    dof rx ry rz
    limits (-160.0 20.0)
           (-70.0 70.0)
           (-70.0 60.0)
  end
  begin
     id 8 
     name rtibia
     direction -0.34202 -0.939693 0   
     length 6.36669   
     axis 0 -0 -20   XYZ
    dof rx
    limits (-10.0 170.0)
 end
 begin
     id 9 
     name rfoot
     direction -0.137064 -0.37658 0.916188   
     length 2.22351  
     axis -90 1.13533e-015 -20   XYZ
    dof rx rz
    limits (-45.0 90.0)
           (-20.0 70.0)
  end
  begin
     id 10 
     name rtoes
     direction -0.000784077 -0.00289101 0.999996   
     length 1.09522   
     axis -90 1.13533e-015 -20   XYZ
    dof rx
    limits (-90.0 20.0)
  end
  begin
     id 11 
     name lowerback
     direction -0.0176242 0.984912 -0.172157   
     length 1.65301   
     axis 0 -0 0   XYZ
    dof rx ry rz
    limits (-20.0 45.0)
           (-30.0 30.0)
           (-30.0 30.0)
  end
  begin
     id 12 
     name upperback
     direction -0.00218128 0.998776 -0.0494072   
     length 1.67776   
     axis 0 -0 0   XYZ
    dof rx ry rz
    limits (-20.0 45.0)
           (-30.0 30.0)
           (-30.0 30.0)
  end
  begin
     id 13 
     name thorax
     direction 0.00544186 0.999658 0.0255711   
     length 1.72293   
     axis 0 -0 0   XYZ
    dof rx ry rz
    limits (-20.0 45.0)
           (-30.0 30.0)
           (-30.0 30.0)
  end
  begin
     id 14 
     name lowerneck
     direction -0.105325 0.983841 0.144785   
     length 2.14226   
     axis 0 -0 0   XYZ
    dof rx ry rz
    limits (-20.0 45.0)
           (-30.0 30.0)
           (-30.0 30.0)
  end
  begin
     id 15 
     name upperneck
     direction 0.0547957 0.988053 -0.144041   
     length 2.17508   
     axis 0 -0 0   XYZ
    dof rx ry rz
    limits (-20.0 45.0)
           (-30.0 30.0)
           (-30.0 30.0)
  end
  begin
     id 16
     name head
     direction 0.0247488 0.997534 -0.0656813  
     length 2.20048  
     axis 0 -0 0   XYZ
    dof rx ry rz
    limits (-20.0 45.0)
           (-30.0 30.0)
           (-30.0 30.0)
  end
  begin
     id 17 
     name lclavicle
     direction 0.820559 0.567247 -0.0701026  
     length 4.09615  
     axis 0 -0 0   XYZ
    dof ry rz
    limits (-20.0 10.0)
           (0.0 20.0)
  end
  begin
     id 18 
     name lhumerus
     direction 0.999977 -0.0067566 -9.96392e-005   
     length 4.59333   
     axis -180 -30 -90   XYZ
    dof rx ry rz
    limits (-60.0 90.0)
           (-90.0 90.0)
           (-90.0 90.0)
  end
  begin
     id 19
     name lradius
     direction 1 -4.48982e-011 -2.53425e-027   
     length 2.81151   
     axis -180 -30 -90   XYZ
    dof rx
    limits (-10.0 170.0)
  end
  begin
     id 20
     name lwrist
     direction 1 -4.48939e-011 -7.39254e-028   
     length 1.40576   
     axis 2.56395e-016 90 90   XYZ
    dof ry
    limits (-180.0 0.0)
 end
  begin
     id 21 
     name lhand
     direction 1 -4.48939e-011 -1.47851e-027   
     length 0.895651   
     axis 9.43423e-016 90 90   XYZ
    dof rx rz
    limits (-90.0 90.0)
           (-45.0 45.0)
  end
  begin
     id 22 
     name lfingers
     direction 1 -4.48978e-011 -2.95702e-027   
     length 0.722097   
     axis 1.88685e-015 90 90   XYZ
    dof rx
    limits (0.0 90.0)
  end
  begin
     id 23
     name lthumb
     direction 0.707107 -6.34931e-011 0.707107   
     length 1.03679   
     axis -90 45 -9.86935e-015   XYZ
    dof rx rz
    limits (-45.0 45.0)
           (-45.0 45.0)
  end
  begin
     id 24 
     name rclavicle
     direction -0.831414 0.553102 -0.0531864   
     length 4.24872  
     axis 0 -0 0   XYZ 
    dof ry rz
    limits (-10.0 20.0)
           (-20.0 0.0)
  end
  begin
     id 25 
     name rhumerus
     direction -0.999916 -0.000939607 0.0129331  
     length 4.74834   
     axis -180 30 90   XYZ
    dof rx ry rz
    limits (-90.0 60.0)
           (-90.0 90.0)
           (-90.0 90.0)
  end
  begin
     id 26 
     name rradius
     direction -1 -4.48956e-011 -1.31752e-027   
     length 2.79907   
     axis -180 30 90   XYZ
    dof rx
    limits (-10.0 170.0)
  end
  begin
     id 27 
     name rwrist
     direction -1 -4.4897e-011 -7.39254e-028   
     length 1.39954   
     axis 2.56395e-016 -90 -90   XYZ
    dof ry
    limits (-180.0 0.0)
  end
  begin
     id 28
     name rhand
     direction -0.999997 -0.00250697 0.000800838   
     length 0.953304   
     axis 9.43423e-016 -90 -90   XYZ
    dof rx rz
    limits (-90.0 90.0)
           (-45.0 45.0)
  end
  begin
     id 29
     name rfingers
     direction -1 -4.48954e-011 -2.95702e-027   
     length 0.763342   
     axis 1.88685e-015 -90 -90   XYZ
    dof rx
    limits (0.0 90.0)
  end
  begin
     id 30
     name rthumb
     direction -0.709701 -0.00217037 0.7045   
     length 1.10115   
     axis -90 -45 9.86935e-015   XYZ
    dof rx rz
    limits (-45.0 45.0)
           (-45.0 45.0)
  end
:hierarchy
  begin
    root lhipjoint rhipjoint lowerback
    lhipjoint lfemur
    lfemur ltibia
    ltibia lfoot
    lfoot ltoes
    rhipjoint rfemur
    rfemur rtibia
    rtibia rfoot
    rfoot rtoes
    lowerback upperback
    upperback thorax
    thorax lowerneck lclavicle rclavicle
    lowerneck upperneck
    upperneck head
    lclavicle lhumerus
    lhumerus lradius
    lradius lwrist
    lwrist lhand lthumb
    lhand lfingers
    rclavicle rhumerus
    rhumerus rradius
    rradius rwrist
    rwrist rhand rthumb
    rhand rfingers
  end

#!OML:ASF G:\ViconDB\ViconDB\414\test\team2\shane.ASF
:FULLY-SPECIFIED
:DEGREES
79
root 5.78331 16.1324 -24.1627 -9.95356 -2.59235 -1.87685
lowerback 9.34189 0.0446141 -1.15945
upperback 7.16126 -0.021435 -0.621979
thorax 2.1985 -0.0437854 0.0088561
lowerneck -18.0615 -6.18717 -11.9585
upperneck 20.0878 -9.03626 15.5266
head 10.7589 -3.39091 6.28234
rclavicle -7.95139e-016 7.95139e-016
rhumerus -38.2586 9.10562 -89.6876
rradius 27.1828
rwrist 36.714
rhand -29.6732 -13.6659
rfingers 7.12502
rthumb -3.0019 -43.6245
lclavicle -7.95139e-016 7.95139e-016
lhumerus -22.6972 -12.2079 94.982
lradius 24.866
lwrist -18.6937
lhand -43.3428 10.4839
lfingers 7.12502
lthumb -16.1884 39.828
rfemur -16.0227 -14.6598 13.2489
rtibia 75.1165
rfoot -17.2416 -4.98211
rtoes -17.3312
lfemur 1.72032 3.18879 -16.2037
ltibia 42.023
lfoot -34.2521 -5.96253
ltoes -8.35252
80
root 5.78587 16.1774 -24.0207 -10.0557 -2.38417 -2.04997
lowerback 9.34551 -0.257856 -1.20955
upperback 7.17444 -0.430093 -0.245441
thorax 2.2175 -0.259894 0.455357
lowerneck -18.1112 -5.92437 -12.0499
upperneck 20.1907 -8.55231 15.191
head 10.7097 -3.20869 6.25321
rclavicle -5.01931e-015 -7.95139e-016
rhumerus -38.9464 8.95393 -88.8984
rradius 27.2728
rwrist 36.5664
rhand -29.7497 -13.8672
rfingers 7.12502
rthumb -3.07572 -43.8247
lclavicle -5.01931e-015 -7.95139e-016
lhumerus -22.1227 -12.3676 95.3403
lradius 25.714
lwrist -17.7501
lhand -42.8291 9.8018
lfingers 7.12502
lthumb -15.6938 39.1854
rfemur -17.2336 -14.6889 13.8332
rtibia 73.9724
rfoot -17.612 -4.94179
rtoes -17.5471
lfemur 2.91428 3.13859 -16.0057
ltibia 40.8083
lfoot -33.8789 -6.29054
ltoes -8.42051
81
root 5.78804 16.2276 -23.8757 -10.0971 -2.2209 -2.26084
lowerback 9.28873 -0.563181 -1.27883
upperback 7.19094 -0.843589 0.151586
thorax 2.28088 -0.480177 0.933158
lowerneck -18.5172 -5.67256 -11.8605
upperneck 20.5978 -8.07548 14.5022
head 10.8118 -3.0282 6.04786
rclavicle -1.799e-014 -2.38542e-015
rhumerus -39.279 7.84215 -87.7031
rradius 27.0547
rwrist 37.2678
rhand -29.6748 -13.9724
rfingers 7.12502
rthumb -3.00338 -43.931
lclavicle -1.799e-014 -2.38542e-015
lhumerus -21.3764 -12.2841 95.5973
lradius 26.2473
lwrist -17.9652
lhand -42.5888 10.0769
lfingers 7.12502
lthumb -15.4623 39.4785
rfemur -18.4111 -14.6226 14.4587
rtibia 72.6565
rfoot -17.7552 -4.65096
rtoes -17.3092
lfemur 4.14104 3.05927 -15.7717
ltibia 39.4269
lfoot -33.4611 -6.55673
ltoes -8.60232
82
root 5.78471 16.2822 -23.7324 -10.0514 -1.79923 -2.45122
lowerback 9.20595 -0.906848 -1.32471
upperback 7.11047 -1.30491 0.432149
thorax 2.26242 -0.719456 1.28038
lowerneck -18.6517 -5.44727 -11.6096
upperneck 20.9009 -7.73855 14.0743
head 10.8619 -2.89262 5.90634
rclavicle -2.48481e-016 1.27222e-014
rhumerus -40.0202 7.54106 -87.1466
rradius 27.1894
rwrist 36.6477
rhand -29.6878 -14.0647
rfingers 7.12502
rthumb -3.01596 -44.0231
lclavicle -2.48481e-016 1.27222e-014
lhumerus -20.7701 -12.5077 95.713
lradius 26.7229
lwrist -17.7445
lhand -42.0649 9.35843
lfingers 7.12502
lthumb -14.9577 38.7983
rfemur -19.5628 -14.6987 15.0259
rtibia 71.1707
rfoot -17.675 -4.06935
rtoes -16.8658
lfemur 5.2549 2.88762 -15.5649
ltibia 37.9638
lfoot -32.804 -6.88801
ltoes -9.27393
83
root 5.7808 16.3436 -23.5845 -10.0414 -1.60866 -2.5549
lowerback 9.08798 -1.17239 -1.37453
upperback 7.05967 -1.66236 0.659351
thorax 2.2947 -0.906217 1.56545
lowerneck -18.7084 -5.17093 -11.3646
upperneck 21.0594 -7.33588 13.7162
head 10.8408 -2.72477 5.79759
rclavicle 1.69215e-014 -1.98785e-016
rhumerus -40.5351 6.80432 -86.4199
rradius 27.2877
rwrist 35.6526
rhand -29.364 -13.8461
rfingers 7.12502
rthumb -2.70323 -43.8087
lclavicle 1.69215e-014 -1.98785e-016
lhumerus -20.2501 -13.0305 95.8137
lradius 27.3566
lwrist -17.6058
lhand -42.1222 9.19322
lfingers 7.12502
lthumb -15.0128 38.629
rfemur -20.5294 -14.4793 15.4842
rtibia 69.4863
rfoot -17.5267 -3.39429
rtoes -16.3696
lfemur 6.45358 3.02316 -15.3781
ltibia 36.4309
lfoot -32.1705 -7.21807
ltoes -9.65816
84
root 5.77081 16.4135 -23.4453 -9.95567 -1.32939 -2.7942
lowerback 9.15977 -1.46329 -1.37959
upperback 6.88976 -2.05252 0.954132
thorax 2.10453 -1.10623 1.90426
lowerneck -18.7182 -4.93041 -11.1362
upperneck 21.3287 -6.98276 13.3073
head 10.8599 -2.5879 5.6686
rclavicle 1.99779e-014 -2.0276e-014
rhumerus -41.29 6.07162 -85.5742
rradius 27.1616
rwrist 37.1846
rhand -29.6214 -14.2058
rfingers 7.12502
rthumb -2.95186 -44.1651
lclavicle 1.99779e-014 -2.0276e-014
lhumerus -19.8352 -13.4398 95.9362
lradius 27.9571
lwrist -17.6686
lhand -42.0969 9.37576
lfingers 7.12502
lthumb -14.9885 38.8133
rfemur -21.5224 -14.1632 16.1303
rtibia 67.6371
rfoot -16.963 -2.69195
rtoes -16.7644
lfemur 7.60449 2.53887 -15.1623
ltibia 34.7927
lfoot -31.1368 -7.51173
ltoes -10.7657
85
root 5.76628 16.4844 -23.2989 -9.90446 -0.905053 -2.94434
lowerback 9.12482 -1.83423 -1.45706
upperback 6.77471 -2.55255 1.25008
thorax 2.04434 -1.36537 2.28887
lowerneck -18.726 -4.66218 -11.096
upperneck 21.4809 -6.56939 13.0878
head 10.8447 -2.41941 5.64967
rclavicle -1.6437e-014 2.67365e-014
rhumerus -41.8773 5.7133 -84.8956
rradius 27.2432
rwrist 36.4674
rhand -29.4136 -14.1242
rfingers 7.12502
rthumb -2.75112 -44.0862
lclavicle -1.6437e-014 2.67365e-014
lhumerus -19.3477 -13.7648 95.9612
lradius 28.3844
lwrist -18.1046
lhand -42.3316 9.1555
lfingers 7.12502
lthumb -15.2146 38.5761
rfemur -22.2153 -13.8819 16.5168
rtibia 65.569
rfoot -16.2406 -1.92836
rtoes -16.8741
lfemur 8.7465 2.73939 -14.8322
ltibia 33.1508
lfoot -30.3045 -8.26998
ltoes -11.6165
86
root 5.75779 16.5503 -23.1473 -9.87556 -0.581751 -2.81181
lowerback 9.11895 -2.11447 -1.81899
upperback 6.59125 -2.95064 1.47611
thorax 1.90962 -1.57969 2.75646
lowerneck -18.7945 -4.42214 -10.8724
upperneck 21.9114 -6.19202 12.5588
head 10.9318 -2.28398 5.48528
rclavicle 2.20806e-014 4.07509e-015
rhumerus -42.6601 5.37036 -84.1612
rradius 27.1933
rwrist 37.1662
rhand -29.4514 -14.655
rfingers 7.12502
rthumb -2.78766 -44.6165
lclavicle 2.20806e-014 4.07509e-015
lhumerus -19.157 -14.2579 96.1245
lradius 29.0883
lwrist -17.8723
lhand -42.5344 9.09131
lfingers 7.12502
lthumb -15.4099 38.497
rfemur -22.8145 -13.5442 16.5434
rtibia 63.3712
rfoot -15.1158 -1.19318
rtoes -17.1242
lfemur 10.0229 2.5791 -15.0176
ltibia 31.4382
lfoot -29.3166 -8.40182
ltoes -12.3773
87
root 5.74894 16.6294 -22.9936 -9.76933 -0.334661 -2.95344
lowerback 9.09888 -2.39543 -1.82737
upperback 6.33551 -3.32476 1.71652
thorax 1.69282 -1.76731 3.04132
lowerneck -18.6392 -4.15882 -10.6583
upperneck 22.1878 -5.83118 12.2085
head 10.9317 -2.14546 5.38166
rclavicle -4.79754e-014 1.10325e-014
rhumerus -43.381 4.42705 -83.116
rradius 26.9277
rwrist 38.2684
rhand -29.6861 -14.2099
rfingers 7.12502
rthumb -3.01427 -44.1683
lclavicle -4.79754e-014 1.10325e-014
lhumerus -19.0434 -14.8221 96.2498
lradius 29.7334
lwrist -17.9011
lhand -42.6197 9.1402
lfingers 7.12502
lthumb -15.492 38.5395
rfemur -23.2902 -13.0132 16.8847
rtibia 60.982
rfoot -13.6245 -0.623031
rtoes -17.2993
lfemur 11.2044 2.79078 -14.6642
ltibia 29.6405
lfoot -28.1134 -9.32424
ltoes -12.5363
88
root 5.73783 16.7011 -22.8399 -9.74748 -0.11454 -2.98855
lowerback 9.22305 -2.70595 -2.02448
upperback 6.07077 -3.75257 2.02785
thorax 1.41413 -1.98781 3.51864
lowerneck -18.5634 -3.88784 -10.6476
upperneck 22.5813 -5.37945 11.7907
head 10.9844 -1.98881 5.3061
rclavicle 5.57839e-015 -4.87022e-015
rhumerus -44.075 4.08834 -82.2048
rradius 26.7867
rwrist 38.2921
rhand -29.625 -13.6581
rfingers 7.12502
rthumb -2.95533 -43.6173
lclavicle 5.57839e-015 -4.87022e-015
lhumerus -18.9139 -14.8396 96.3503
lradius 30.2329
lwrist -18.2242
lhand -42.8581 8.59697
lfingers 7.12502
lthumb -15.7217 37.9783
rfemur -23.5893 -12.3767 17.0423
rtibia 58.4966
rfoot -11.8637 -0.239975
rtoes -17.0122
lfemur 12.5898 2.80522 -14.5178
ltibia 27.6661
lfoot -26.8387 -9.86067
ltoes -12.7757
89
root 5.72835 16.7609 -22.6878 -9.62459 0.225951 -2.99959
lowerback 9.17583 -2.98147 -2.15115
upperback 5.80003 -4.12598 2.21195
thorax 1.21066 -2.1756 3.81294
lowerneck -18.29 -3.60832 -10.2675
upperneck 22.829 -5.01144 11.2918
head 10.9463 -1.8537 5.11536
rclavicle 2.27857e-014 -1.49089e-014
rhumerus -44.8505 3.5005 -81.4994
rradius 26.7554
rwrist 38.4813
rhand -29.4479 -14.1249
rfingers 7.12502
rthumb -2.78423 -44.0865
lclavicle 2.27857e-014 -1.49089e-014
lhumerus -18.8716 -15.6398 96.4217
lradius 30.973
lwrist -17.6808
lhand -42.9573 8.96368
lfingers 7.12502
lthumb -15.8173 38.3375
rfemur -23.8932 -12.0048 17.1449
rtibia 55.9094
rfoot -9.94864 0.23955
rtoes -17.3332
lfemur 13.8399 2.79624 -14.4272
ltibia 25.7351
lfoot -25.6483 -10.1567
ltoes -13.2584
90
root 5.71959 16.8206 -22.5231 -9.63089 0.203826 -3.06164
lowerback 9.14167 -3.19008 -2.17301
upperback 5.60756 -4.40427 2.52582
thorax 1.0805 -2.31754 4.17546
lowerneck -18.2967 -3.39546 -10.3802
upperneck 23.232 -4.60327 10.9134
head 11.0354 -1.72273 5.06898
rclavicle -2.78795e-014 1.98785e-014
rhumerus -45.4841 3.32377 -80.6803
rradius 26.634
rwrist 38.7965
rhand -29.491 -14.1443
rfingers 7.12502
rthumb -2.8259 -44.1053
lclavicle -2.78795e-014 1.98785e-014
lhumerus -18.6883 -15.7806 96.5567
lradius 31.4804
lwrist -17.9075
lhand -43.2411 8.94922
lfingers 7.12502
lthumb -16.0905 38.3012
rfemur -23.9876 -11.2329 17.2883
rtibia 53.2802
rfoot -8.11685 0.753711
rtoes -16.8942
lfemur 15.4132 2.91639 -14.2977
ltibia 23.6173
lfoot -24.4293 -10.413
ltoes -14.1444
91
root 5.71143 16.8841 -22.3591 -9.59902 0.299727 -3.05477
lowerback 9.00374 -3.39682 -2.23025
upperback 5.41628 -4.68124 2.70488
thorax 1.0025 -2.45743 4.41043
lowerneck -18.0367 -3.14996 -10.1131
upperneck 23.4383 -4.25664 10.4727
head 10.9986 -1.60045 4.91432
rclavicle -2.78795e-014 1.98785e-014
rhumerus -45.4841 3.32377 -80.6803
rradius 26.634
rwrist 38.7965
rhand -29.491 -14.1443
rfingers 7.12502
rthumb -2.8259 -44.1053
lclavicle 6.65929e-015 -1.27222e-014
lhumerus -18.6441 -16.3163 96.5709
lradius 32.2049
lwrist -17.3749
lhand -43.2812 8.82884
lfingers 7.12502
lthumb -16.1292 38.1777
rfemur -23.9703 -10.6309 17.3146
rtibia 50.6291
rfoot -6.4852 1.27033
rtoes -16.7826
lfemur 16.893 3.38073 -13.9702
ltibia 21.3971
lfoot -22.9766 -11.5899
ltoes -14.2877
92
root 5.70253 16.9321 -22.1972 -9.45566 0.487418 -3.23008
lowerback 8.85689 -3.66097 -2.06696
upperback 5.16549 -5.01691 2.96894
thorax 0.863739 -2.62038 4.6158
lowerneck -17.9584 -2.92088 -9.93553
upperneck 23.806 -3.89052 10.003
head 11.0597 -1.47708 4.77375
rclavicle 6.53008e-014 -2.14687e-014
rhumerus -46.7334 2.28564 -78.9546
rradius 26.3432
rwrist 39.5118
rhand -29.3745 -14.101
rfingers 7.12502
rthumb -2.71334 -44.0635
lclavicle 6.53008e-014 -2.14687e-014
lhumerus -18.5212 -16.8232 96.6335
lradius 32.8734
lwrist -16.819
lhand -43.2249 8.85113
lfingers 7.12502
lthumb -16.0749 38.2044
rfemur -24.1327 -10.2018 17.5198
rtibia 48.1384
rfoot -4.69388 1.67096
rtoes -16.7569
lfemur 18.2384 3.35161 -13.7072
ltibia 19.3
lfoot -21.8892 -11.7251
ltoes -15.0358
93
root 5.69138 16.9692 -22.0326 -9.32609 0.696379 -3.16264
lowerback 8.67913 -3.90237 -2.20887
upperback 4.92484 -5.34496 3.1341
thorax 0.772767 -2.786 4.88482
lowerneck -17.7897 -2.67134 -9.59911
upperneck 24.0942 -3.53565 9.50202
head 11.0743 -1.35031 4.58837
rclavicle 6.53008e-014 -2.14687e-014
rhumerus -46.7334 2.28564 -78.9546
rradius 26.3432
rwrist 39.5118
rhand -29.3745 -14.101
rfingers 7.12502
rthumb -2.71334 -44.0635
lclavicle -5.60076e-014 4.73108e-014
lhumerus -18.4157 -16.9803 96.5762
lradius 33.4689
lwrist -16.692
lhand -42.9679 8.28953
lfingers 7.12502
lthumb -15.8275 37.6626
rfemur -24.193 -9.88011 17.4383
rtibia 45.7284
rfoot -3.02866 1.91592
rtoes -17.2874
lfemur 19.5827 3.21167 -13.7185
ltibia 17.2107
lfoot -20.704 -12.0652
ltoes -15.3847
